REM MD5 66263b4c9a2ca653a04e717e2af65904
FILE "PlayStation Underground 4.1 (USA) (Disc 2).bin" BINARY
  TRACK 01 MODE2/2352
    INDEX 01 00:00:00
  TRACK 02 AUDIO
    INDEX 00 62:39:17
    INDEX 01 62:41:17
  TRACK 03 AUDIO
    INDEX 00 67:07:56
    INDEX 01 67:09:56
  TRACK 04 AUDIO
    INDEX 00 69:05:74
    INDEX 01 69:07:74
REM LEADOUT 69:13:70
